<svg xmlns="http://www.w3.org/2000/svg" viewBox="0 0 500 500"><path d="M132.389 97.98c-1.161.469-2.384 1.565-2.719 2.436-.719 1.875-3.506 2.013-8.772.435-4.958-1.485-6.898-.032-6.898 5.168 0 3.04-.661 4.354-3.403 6.761-4.617 4.055-5.597 6.201-5.597 12.26 0 4.271-.553 5.894-3.171 9.316-4.967 6.49-11.071 12.669-14.079 14.25-2.57 1.351-2.75 1.871-2.75 7.955v6.51l4.588 1.967c6.092 2.611 11.307 3.353 14.624 2.081 2.16-.829 3.654-.624 7.347 1.01 3.208 1.419 7.894 2.254 15.221 2.711l10.586.66 4.205 6.151c3.672 5.37 4.294 7.086 4.9 13.5 1.547 16.384 5.603 27.402 10.481 28.47 9.914 2.172 10.638 2.863 18.048 17.222 4.213 8.162 6.358 11.21 9.165 13.02l3.665 2.362.58 9.638c.318 5.3 1.26 12.562 2.093 16.137 2.001 8.591 1.9 13.21-.523 24.091-2.671 11.988-3.903 14.584-9.407 19.815-5.723 5.44-5.449 6.513 1.756 6.894 6.373.337 6.241.197 4.097 4.343-1.973 3.816-2.011 3.786 5.682 4.495 12.755 1.176 18.719-2.945 15.828-10.939-.729-2.016-.91-4.226-.437-5.323.748-1.732.843-1.742 1.229-.126.506 2.117 2.591 2.276 4.212.322.927-1.117.819-2.137-.494-4.676-2.717-5.255-3.066-21.718-.645-30.396 4.175-14.961 12.93-43.129 14.064-45.248 1.91-3.569 5.579-3.858 11.458-.902 12.345 6.209 44.451 9.118 56.046 5.077l4.87-1.696 3.182 3.384c1.751 1.862 4.45 4.289 5.999 5.395 1.907 1.36 3.021 3.231 3.448 5.793.844 5.054 2.526 5.162 3.07.197l.438-4 .562 4.422c.755 5.938 2.847 6.511 3.251.891.454-6.301 3.205-5.969 3.616.437.259 4.043.613 4.75 2.381 4.75 1.777 0 2.004-.467 1.579-3.25-.57-3.724-.06-5.75 1.446-5.75.656 0 .81 1.466.415 3.94-.383 2.392-.211 4.199.438 4.6 1.563.966 2.04.123 2.663-4.707.398-3.081 1.601-5.489 4.166-8.333 1.984-2.2 4.284-5.045 5.112-6.323 1.358-2.098 1.501.322 1.469 25-.04 30.758-.427 32.716-7.848 39.769-5.443 5.173-4.89 6.054 3.803 6.054 8.31 0 10.571-1.258 10.571-5.88 0-2.906 1.655-5.642 3.793-6.269 1.014-.298 1.348-6.823 1.542-30.107.165-19.799.612-30.091 1.338-30.817 1.175-1.175 6.501 11.425 8.387 19.839.543 2.423 1.903 6.202 3.023 8.397 4.287 8.404 2.575 32.629-3.102 43.875-1.64 3.248-2.981 6.572-2.981 7.388 0 3.205 15.217 3.365 17.543.184.696-.952.971-3.609.684-6.601-.441-4.593-.305-5.009 1.646-5.009 2.582 0 2.634-.707.377-5.096-2.195-4.269-3.142-41.074-1.276-49.578 1.075-4.897.966-5.538-2.034-11.954-5.974-12.778-6.36-40.559-.914-65.872 3.113-14.473 3.952-14.515 8.012-.4 1.676 5.827 2.312 11.864 2.989 28.4 1.346 32.864 6.138 46.113 20.282 56.082 2.066 1.456 3.143 3.425 4.075 7.449l1.267 5.469 1.255-5.795c2.427-11.21-.015-17.644-11.259-29.663-10.973-11.729-11.542-13.518-12.602-39.599-.76-18.732-1.015-20.616-3.849-28.5-9.25-25.732-7.91-23.763-20.487-30.089-8.819-4.434-10.958-4.701-22.573-2.815-7.741 1.257-9.105 1.191-20.465-.988-6.694-1.284-16.896-2.679-22.671-3.1-25.101-1.831-38.229-3.242-65.5-7.041-31.72-4.419-39.87-4.874-46.167-2.577-7.329 2.673-12.734 3.027-18.252 1.194-6.438-2.139-7.045-3.119-1.665-2.691 5.337.425 9.317-2.651 13.006-10.056 3.007-6.034 3.123-7.092 1.007-9.209-2.997-2.996-10.059-2.019-17.546 2.429-3.703 2.2-7.234 4-7.848 4-2.606 0-9.128-4.255-11.708-7.638-3.874-5.079-8.71-7.091-12.938-5.382M47.424 374.963c-11.389 5.795-12.274 25.504-1.472 32.784 4.354 2.934 13.924 3.134 19.064.399 10.618-5.65 11.022-24.802.686-32.519-4.003-2.989-13.063-3.318-18.278-.664m36.487.318c-9.045 6.095-5.663 14.921 7.183 18.747 7.327 2.182 9.395 3.856 8.448 6.84-1.493 4.703-10.744 4.701-13.419-.003-1.858-3.266-8.123-4.281-8.123-1.315 0 9.79 17.924 14.726 25.6 7.05 7.369-7.369 3.866-15.154-8.498-18.889-7.99-2.413-10.365-4.484-8.172-7.127 2.187-2.635 8.702-2.075 10.662.916 2.539 3.875 8.921 3.679 7.936-.244-1.938-7.722-14.055-11.071-21.617-5.975m114.589-.924c-12.219 5.654-13.202 27.57-1.516 33.789 3.969 2.111 13.841 2.527 17.332.729 11.78-6.067 12.603-24.954 1.447-33.218-3.458-2.562-12.985-3.28-17.263-1.3m38.924.606c-11.389 5.795-12.274 25.504-1.472 32.784 4.354 2.934 13.924 3.134 19.064.399 10.618-5.65 11.022-24.802.686-32.519-4.003-2.989-13.063-3.318-18.278-.664m232.59-.211c-9.642 4.836-6.817 15.606 4.94 18.833 8.813 2.419 10.046 3.127 10.046 5.771 0 6.184-12.539 6.821-14.471.735-.504-1.586-1.492-2.091-4.096-2.091-3.877 0-4.117.756-1.798 5.643 3.965 8.355 22.481 8.982 26.17.885 3.676-8.068.187-13.557-10.732-16.882-8.295-2.525-10.777-4.869-7.632-7.205 3.136-2.328 8.116-1.82 10.38 1.059 2.426 3.083 8.179 3.592 8.179.723 0-7.213-12.575-11.69-20.986-7.471M9 392v18h26v-6H16v-30H9v18m102-15c0 2.97.056 3 5.5 3h5.5v30h7v-29.895l5.25-.303c4.897-.282 5.271-.487 5.566-3.052l.317-2.75H111v3m48 15v18h26v-6h-19v-30h-7v18m110 0v18H275.909l.295-6.75.296-6.75 7.399-.575c11.371-.883 16.226-7.981 11.591-16.945-2.241-4.333-4.31-4.98-15.924-4.98H269v18m49 0v18h7v-16h15v-6h-15v-8h17v-6h-24v18m36.184-5.303a5784.143 5784.143 0 0 1-7.076 18.053l-2.079 5.25h3.945c3.737 0 4.009-.212 5.144-4l1.199-4h15.38l1.571 4c1.426 3.629 1.903 4 5.152 4 4.52 0 4.754 1.345-3.226-18.54l-6.806-16.96-4.103-.303-4.102-.303-4.999 12.803M386 392v18h7v-15h2.911c3.171 0 5.616 2.377 10.665 10.368 2.739 4.335 3.197 4.629 7.233 4.63 4.819.002 4.883.54-.989-8.201-2.107-3.137-4.616-6.152-5.576-6.699-1.519-.867-1.333-1.141 1.44-2.121 6.756-2.39 8.553-10.894 3.393-16.054-2.894-2.894-3.038-2.923-14.5-2.923H386v18m36-.05V410h7l.095-13.75.094-13.75 3.536 13.803 3.536 13.802 3.563-.302 3.562-.303 3.206-12.816c1.764-7.048 3.477-13.086 3.807-13.416.331-.331.601 5.549.601 13.065V410h6v-36h-10.697l-2.306 8.75c-4.676 17.738-3.853 17.324-7.452 3.75l-3.182-12-5.681-.3-5.682-.3v18.05M51.302 380.012c-6.016 2.423-7.311 17.003-1.922 21.639 5.101 4.387 12.703 2.787 15.205-3.199 4.877-11.675-2.983-22.588-13.283-18.44m150.001.185c-6.72 3.247-6.971 19.234-.358 22.773 7.195 3.851 14.191-.702 14.839-9.659.809-11.186-5.899-17.26-14.481-13.114m39.999-.185c-6.016 2.423-7.311 17.003-1.922 21.639 5.101 4.387 12.703 2.787 15.205-3.199 4.877-11.675-2.983-22.588-13.283-18.44M276 385v5h5c3.667 0 5.533-.533 7-2 4.236-4.236 1.023-8-6.829-8H276v5m117-.5v4.5h5.929c6.23 0 9.071-1.526 9.071-4.871 0-3.074-2.224-4.129-8.7-4.129H393v4.5m-32.394 3.75c-1.025 2.887-2.079 5.813-2.342 6.5-.345.901.976 1.25 4.736 1.25 3.743 0 5.088-.353 4.766-1.25-.246-.687-1.283-3.613-2.304-6.5-1.022-2.887-2.113-5.25-2.425-5.25-.312 0-1.406 2.363-2.431 5.25" fill-rule="evenodd"/></svg>